<?xml version="1.0" encoding="UTF-8" standalone="no"?>
<svg class="featured-in-theguardian" version="1.1" id="svg2" xmlns:svg="http://www.w3.org/2000/svg"
   xmlns="http://www.w3.org/2000/svg" xmlns:xlink="http://www.w3.org/1999/xlink" x="0px" y="0px" viewBox="0 0 841.9 148.3"
   style="enable-background:new 0 0 841.9 148.3;" xml:space="preserve">
  <style type="text/css">
    .featured-in-theguardian .st0{fill:#D1D1D1;}
    .featured-in-theguardian .st1{fill:none;}
    .featured-in-theguardian .st2{fill:#B4B4B4;}
  </style>
  <g id="g2406" transform="matrix(1.3484642,0,0,1.3484642,-6.1476944,-327.95008)">
    <path id="path2384" class="st0" d="M45.1,269.5H32.2v-13.7l-19,2.8v10.6l-8.6,1.3v8.5h8.9v37.1c0,1.3,2.3,13.3,15.1,12.6
      c14.7-0.8,16-2.5,17.3-3.4c-0.1,0.1,0-7.2,0-7.2l-8.1,0.1c0,0-4.5-0.3-5.2-5.2l-0.1-33.7h12.4C45.1,279.1,45.1,269.5,45.1,269.5z"
      />
    <path id="path2396" class="st0" d="M72.6,243.2l-25.7,3.7v4.9l6.8,3.1v64.2l-6.5,2.5v5.2h31.5v-5.2l-6.4-2.8v-37.9
      c0,0,3.7-1.6,8.6-1.6c4.9,0,7.2,3.3,7.2,5.1c0,2,0,34.5,0,34.5l-5.8,2.5v5.2h31.5v-5.1l-6.5-3.1v-38.9c0,0,0.1-12.3-14.1-11.7
      c-8.6,0-14.8,2.8-20.9,7.6C72.6,275.6,72.6,243.2,72.6,243.2z"/>
    <g>
      <path class="st0" d="M168.5,299.6c0.7-12.6-0.6-32.8-26.2-31.7c-25,1.1-28.1,20.4-28,32.7c1.4,19.9,11.7,27.4,31.1,27.7
        c15.3-0.4,20.8-8.6,20.8-8.6v-5.4c0,0-7.2,2.1-14.7,2.1c-17.8-0.1-17.7-17-17.7-17L168.5,299.6L168.5,299.6z M133.9,293
        c0,0-0.1-8.2,1.6-13.3c1.3-4.1,4-5.5,6.9-5.5c5.1,0,6.4,2.8,6.9,6.2c0.8,4.9,0.7,11.7,0.7,11.9L133.9,293z"/>
    </g>
  </g>
  <g>
    <path class="st1" d="M576.2,45.2c-6.9,3.3-9.3,15.8-9.3,31.7c0,18.2,6.9,23.9,15.3,23.9c5.1,0,7.9-1.4,7.9-1.4V46.8
      C589.8,46.3,583.1,41.9,576.2,45.2z"/>
    <path class="st1" d="M257.9,63.4c0,5.7-0.3,13.4,9.8,13.4c10,0,8.8-13.4,8.8-13.4v-7.3c0-4.1-0.1-14.1-9.6-14
      c-9.5,0-8.9,12.7-8.9,12.7S257.9,57.9,257.9,63.4z"/>
    <path class="st1" d="M427.4,89.2c0,10.5,6.5,11.7,9.6,11.7c3.4-0.1,5.8-1.4,7.9-2.7V76.8C445,76.7,427.6,75.2,427.4,89.2z"/>
    <path class="st1" d="M698.1,89c0,10.5,6.5,11.7,9.6,11.7c3.4-0.1,5.8-1.4,7.9-2.7V76.6C715.5,76.6,698.1,75,698.1,89z"/>
    <path class="st2" d="M286.4,96.1h-30.8c0,0-4.5-0.4-4.8-5.2c-0.1-4.7,3.1-5.9,3.1-5.9s6.5,2,13.4,2s33.8-2.8,33.8-26.2
      c0-10.6-8.3-16.7-8.3-16.7l14.8,4l-0.3-15.3l-21.5,4c0,0-11.2-4.1-19.1-4.1c-5.4,0-32.8,2.1-33.9,26.3
      c-0.7,17.1,13.7,23.5,13.6,23.5c-0.1,0-13.7,8.5-13.9,19c-0.1,10,11.5,13.2,12.3,13.4l0,0l0,0c-1.1,0-18.8,3.3-18.8,15.7
      c0,11.9,19.7,17.7,40.3,17.7c20.8,0.1,43.6-5.8,43.6-30.4C310.3,93.3,286.4,96.1,286.4,96.1z M266.8,42.1c9.5,0,9.6,9.9,9.6,14v7.4
      c0,0,1.3,13.3-8.8,13.4c-10,0-9.8-7.8-9.8-13.4s0-8.6,0-8.6S257.3,42.1,266.8,42.1z M266.8,138.8c-14.3,0-19.4-5.8-19.4-11.3
      c0-5.5,3.4-7.9,3.4-7.9h30.8c0,0,6.1,0.7,6.1,6.1C288,133.9,281,138.8,266.8,138.8z"/>
    <path class="st2" d="M245.1,114.8C245.3,114.8,245.3,114.8,245.1,114.8C245.3,114.8,245.1,114.8,245.1,114.8z"/>
    <path class="st2" d="M391.2,33.4l-34.5,5.4v6.5l9.1,4.5v46.5c0,0-2.4,2-9.9,2.5c-7.5,0.5-11-6.5-11-6.5V33.2l-34.6,5.4v6.8l8.9,4.2
      v43.6c0,0,0.4,21.4,21.5,21.6c17.1,0.1,25.6-11.6,25.6-11.6v11.5l33.7-4v-6.2l-8.6-4.9L391.2,33.4L391.2,33.4z"/>
    <path class="st2" d="M470.6,54.4c0-17-19.8-21.6-33.4-21.6s-30.1,6.1-30.1,6.1v20.5h13.6l5.8-15.8c0,0,0,0,8.2-0.1
      c8.2,0,9.6,9.5,9.6,9.5l0.1,15.8c0,0-8.1,1.3-25.6,4.7c-17.7,3.4-17,19-17,19.4c0,0.4-1.8,21.9,22.3,21.9
      c20.8,0,21.5-11.2,23.5-11.2c0,6.8,7.6,11.3,16.5,11.3c8.9,0,14.8-3.3,14.8-3.3v-5.7l-8.5-4.4C470.6,101.5,470.6,71.5,470.6,54.4z
       M445,98.1c-2.1,1.3-4.4,2.5-7.9,2.7c-3,0-9.6-1.3-9.6-11.7c0-14,17.4-12.3,17.4-12.3L445,98.1L445,98.1z"/>
    <path class="st2" d="M514.3,49.6l0.1-17L480.5,38v7.1l8.8,4.1v52.5l-8.1,4.1v6.6h44.5V106l-10.6-4.2V58.5c0,0,6.8-2.7,13.6-2.7
      s10.3,0.7,10.3,0.7V33.9C539.1,33.9,524.6,29.3,514.3,49.6z"/>
    <path class="st2" d="M615.9,1.3l-34.4,5.4v6.9l8.5,4.1v18.5c0,0-5.9-2.8-13.2-2.8c-7.3,0-36.6,1.1-37.5,41.6
      c-0.8,40.4,30.7,39.9,30.3,39.9c-0.3,0,14.4,0.4,21.1-8.2v8.2l33.2-4.1v-6.5l-8.1-4.1V1.3H615.9z M590.1,99.5c0,0-2.8,1.4-7.9,1.4
      c-8.3,0-15.4-5.7-15.3-23.9c0-16,2.4-28.4,9.3-31.7c6.9-3.3,13.4,1.3,13.9,1.7V99.5z"/>
    <path class="st2" d="M647.8,28.4c7.8,0,14.1-6.4,14.1-14.1c0-7.8-6.4-14.1-14.1-14.1c-7.7,0-14.1,6.4-14.1,14.1
      C633.6,22,640,28.4,647.8,28.4z"/>
    <polygon class="st2" points="661.3,32.9 626.3,37.8 626.3,44.6 635.5,49.1 635.5,101.6 627,105.4 627,112.6 669.4,112.6 
      669.4,105.7 661.3,101.9   "/>
    <path class="st2" d="M741.1,54.4c0-17-19.8-21.6-33.4-21.6c-13.6,0-30.1,6.1-30.1,6.1v20.5h13.6l5.8-15.8c0,0,0,0,8.2-0.1
      c8.2,0,9.6,9.5,9.6,9.5l0.1,15.8c0,0-8.1,1.3-25.6,4.7c-17.7,3.4-17,19-17,19.4c0,0.4-1.8,21.9,22.3,21.9
      c20.8,0,21.5-11.2,23.5-11.2c0,6.8,7.6,11.3,16.5,11.3s14.8-3.3,14.8-3.3v-5.7l-8.5-4.4C741.1,101.5,741.1,71.3,741.1,54.4z
       M715.5,97.9c-2.1,1.3-4.4,2.5-7.9,2.7c-3,0-9.6-1.3-9.6-11.7c0-14,17.4-12.3,17.4-12.3V98h0.1V97.9z"/>
    <path class="st2" d="M833.3,102.2V53.1c0,0,0.6-19.7-19.4-19.7c-19.9,0-28.6,10.5-28.6,10.5l-0.1-11.3l-34.6,5.5v6.5l9.3,4.4v52.9
      l-8.5,3.4v7.4h42.3v-7.2l-7.9-3.7V50.6c0,0,4.2-2,10.3-2c6.2,0,11,2.8,11,8.8c0,6.1,0,44.3,0,44.3l-8.6,4.2v6.5h43.1v-6.9
      L833.3,102.2z"/>
  </g>
</svg>
