<?xml version="1.0" encoding="UTF-8" standalone="no"?>
<svg width="153px" height="25px" viewBox="0 0 153 25" version="1.1" xmlns="http://www.w3.org/2000/svg" xmlns:xlink="http://www.w3.org/1999/xlink" xmlns:sketch="http://www.bohemiancoding.com/sketch/ns">
    <!-- Generator: Sketch 3.1 (8751) - http://www.bohemiancoding.com/sketch -->
    <title>Daily_Telegraph 2</title>
    <desc>Created with Sketch.</desc>
    <defs/>
    <g id="Page-1" stroke="none" stroke-width="1" fill="none" fill-rule="evenodd" sketch:type="MSPage">
        <g id="Investor-Desktop" sketch:type="MSArtboardGroup" transform="translate(-174.000000, -3462.000000)" fill="#C3C3C3">
            <g id="Press-logos" sketch:type="MSLayerGroup" transform="translate(145.000000, 3400.000000)">
                <g id="Daily_Telegraph-2" transform="translate(30.000000, 63.000000)" sketch:type="MSShapeGroup">
                    <g id="layer1">
                        <g id="Ebene_x0020_1" transform="translate(-0.066108, -0.072031)">
                            <path d="M13.0716115,4.39759832 C12.5573629,4.39759832 12.1283002,4.33995144 11.6423369,4.28344932 L11.6423369,12.6508325 C11.6423369,12.8499391 11.6136393,12.9064412 11.4985189,12.9913171 L6.69257076,16.0269772 C7.40803269,16.3674617 8.26615819,16.5950238 9.15413584,16.5950238 C12.1852832,16.5950238 15.6172079,14.9486126 17.2206475,10.8362232 C17.3059158,10.6086612 17.5054798,10.552159 17.5054798,10.9491457 L17.5054798,11.2332099 C17.5054798,15.7425859 14.0436205,19.7984732 8.92463716,19.7984732 C3.34632661,19.7984732 0,15.6284369 0,11.2896303 C0,8.02812518 1.79978753,4.99287389 5.89142822,3.71662922 C6.06394394,3.6585735 6.09264158,3.74344933 5.97710883,3.82955169 C4.175672,5.2188006 3.20250854,7.48853404 3.20250854,9.75785863 C3.20250854,12.16897 4.175672,14.5516259 6.34918861,15.8290971 L7.55069626,14.9201571 C7.95262819,14.608128 8.03665951,14.3252904 8.03665951,13.870248 L8.03665951,3.54556927 C6.7212684,3.06370677 5.54969537,2.77964257 4.46091668,2.77964257 C2.97424682,2.77964257 1.62892111,3.43101142 0.313529998,5.02092053 C0.170948891,5.19075396 0.0840313171,5.19075396 0.0840313171,5.02092053 C0.256547034,1.81583581 3.14511325,0 6.00580647,0 C9.29630462,0 12.3278643,1.58990911 15.6470601,1.58990911 C16.8186331,1.58990911 18.0213777,1.33274679 19.0220843,0.794382173 C19.1646654,0.737880055 19.1929507,0.850802523 19.1359678,0.96380676 C18.1069758,3.51752263 15.5885103,4.39759832 13.0716115,4.39759832 L13.0716115,4.39759832 L13.0716115,4.39759832 Z M28.6350526,19.544091 C28.5195198,19.6570952 28.5195198,19.6290486 28.4338392,19.5725465 L26.1452846,17.5588306 C25.915786,17.3593151 25.80182,17.1898906 25.80182,16.8209505 L25.80182,9.04843406 C25.80182,8.9638853 25.80182,8.87778294 25.6875243,8.79282535 L24.9150794,8.11144741 C24.8282442,8.05658066 24.7142783,8.02812518 24.6003949,8.0846273 L23.1423402,8.76436986 L23.1423402,16.0846241 C23.1423402,16.1976283 23.112488,16.3109596 23.2276085,16.3955084 L23.8860874,16.9623285 C24.0574486,17.1037882 24.3421985,17.2747664 24.6003949,17.1898906 L24.8282442,17.1037882 C25.1146434,16.9903751 25.1732757,17.1602085 25.00076,17.302813 L22.3698953,19.544091 C22.2543625,19.6570952 22.2257474,19.6290486 22.1404791,19.5725465 L19.8227321,17.5303751 C19.5379822,17.302813 19.5379822,17.2463927 19.5379822,16.8774526 L19.5379822,4.28344932 C19.5379822,4.14207137 19.5379822,4.11238936 19.3940816,3.99946689 L19.1076825,3.74344933 C18.8224378,3.48906715 18.7085543,3.54556927 18.3364745,3.71662922 L17.7635937,3.97101141 C17.6779956,3.99946689 17.592315,3.88605381 17.7348961,3.74344933 L20.7664557,1.21941548 C20.8819885,1.10641124 20.8819885,1.13486672 20.9672567,1.19136884 L22.7985457,2.86574493 C23.0280444,3.09208048 23.1423402,3.2335402 23.1423402,3.60207138 L23.1423402,8.33892772 L26.9459324,5.95668065 C27.0614651,5.89976969 27.1754311,5.89976969 27.2611117,5.98472729 L29.1210983,7.68764064 C29.3775629,7.91397618 29.4345458,8.0846273 29.4345458,8.3673832 L29.4345458,16.1399814 C29.4345458,16.2825859 29.4345458,16.3109596 29.5783639,16.4239639 L30.2938258,17.0188306 C30.5790705,17.2747664 30.6930364,17.2179372 31.0650338,17.0484308 L31.6379146,16.7929039 C31.7231829,16.7644484 31.8104303,16.8774526 31.6661999,17.0188306 L28.6350526,19.544091 L28.6350526,19.544091 Z M40.8202533,10.1552541 L35.7566036,13.3038367 L35.7566036,15.7145393 C35.7566036,15.940466 35.7853013,16.0269772 35.9861023,16.111526 L37.6165902,16.9623285 C37.9014226,17.1037882 38.3890351,17.2463927 38.6755168,17.0753327 L40.1917089,16.1976283 C40.4481735,16.0550238 40.6493868,16.1399814 40.5055688,16.2545393 L36.3581821,19.5725465 C36.271347,19.6570952 36.3011991,19.6290486 36.1869033,19.5725465 L32.4956278,17.6432976 C32.2091461,17.5023285 32.1239603,17.4442727 32.1239603,17.0484308 L32.1239603,8.0846273 C32.1239603,7.94202282 32.1820978,7.8855207 32.3518097,7.82901859 L38.3890351,5.89976969 C38.4747157,5.87180482 38.559984,5.84334934 38.6168845,5.95668065 L40.8772362,9.92769207 C40.9342192,10.0137944 40.9342192,10.098752 40.8202533,10.1552541 L40.8202533,10.1552541 Z M35.8152359,7.40357644 L35.7566036,7.43047832 L35.7566036,12.9360415 L37.7592538,11.2896303 C37.8743742,11.2051633 37.8743742,11.1470258 37.8173913,11.0637035 L35.8152359,7.40357644 L35.8152359,7.40357644 Z M63.3701371,4.39759832 C62.8554762,4.39759832 62.4264135,4.33995144 61.9403678,4.28344932 L61.9403678,12.6508325 C61.9403678,12.8499391 61.9105156,12.9064412 61.7965497,12.9913171 L56.9922509,16.0269772 C57.706146,16.3674617 58.564189,16.5950238 59.4521666,16.5950238 C62.4833964,16.5950238 65.9153212,14.9486126 67.5171115,10.8362232 C67.6043589,10.6086612 67.8051599,10.552159 67.8051599,10.9491457 L67.8051599,11.2332099 C67.8051599,15.7425859 64.343383,19.7984732 59.2227504,19.7984732 C53.6444399,19.7984732 50.2965464,15.6284369 50.2965464,11.2896303 C50.2965464,8.02812518 52.0995501,4.99287389 56.1899538,3.71662922 C56.3608202,3.6585735 56.3907549,3.74344933 56.2752221,3.82955169 C54.4725483,5.2188006 53.5005393,7.48853404 53.5005393,9.75785863 C53.5005393,12.16897 54.4725483,14.5516259 56.6473019,15.8290971 L57.8487271,14.9766592 C58.2777898,14.6942304 58.3363396,14.3817925 58.3363396,13.9283037 L58.3363396,3.54556927 C57.0193817,3.06370677 55.8465717,2.77964257 54.7602669,2.77964257 C53.2723601,2.77964257 51.9286012,3.43101142 50.6132101,5.02092053 C50.4689797,5.19075396 50.3821446,5.19075396 50.3821446,5.02092053 C50.5546603,1.81583581 53.4436388,0 56.3050742,0 C59.5948302,0 62.6259775,1.58990911 65.9439364,1.58990911 C67.1183957,1.58990911 68.318254,1.33274679 69.3201151,0.794382173 C69.4639332,0.737880055 69.4909815,0.850802523 69.4356479,0.96380676 C68.4050891,3.51752263 65.8870359,4.39759832 63.3701371,4.39759832 L63.3701371,4.39759832 Z M77.8443872,10.1552541 L72.7819745,13.3038367 L72.7819745,15.7145393 C72.7819745,15.940466 72.8106721,16.0269772 73.0102362,16.111526 L74.6403118,16.9623285 C74.926711,17.1037882 75.414406,17.2463927 75.6991559,17.0753327 L77.2157603,16.1976283 C77.4739567,16.0550238 77.6731084,16.1399814 77.5308572,16.2545393 L73.3819037,19.5725465 C73.2966354,19.6570952 73.3249207,19.6290486 73.2109548,19.5725465 L69.5213285,17.6432976 C69.234517,17.5023285 69.1492487,17.4442727 69.1492487,17.0484308 L69.1492487,8.0846273 C69.1492487,7.94202282 69.2045824,7.8855207 69.3770981,7.82901859 L75.414406,5.89976969 C75.5000041,5.87180482 75.5852724,5.84334934 75.6438222,5.95668065 L77.9025246,9.92769207 C77.9611569,10.0137944 77.9611569,10.098752 77.8443872,10.1552541 L77.8443872,10.1552541 Z M72.838875,7.40357644 L72.7819745,7.43047832 L72.7819745,12.9360415 L74.7845422,11.2896303 C74.8985081,11.2051633 74.8985081,11.1470258 74.8415252,11.0637035 L72.838875,7.40357644 L72.838875,7.40357644 Z M81.8503472,19.544091 C81.7352268,19.6570952 81.7081785,19.6290486 81.6224979,19.5725465 L79.3035963,17.5303751 C79.018764,17.302813 79.018764,17.2463927 79.018764,16.8774526 L79.018764,4.28344932 C79.018764,4.14207137 79.018764,4.11238936 78.8745336,3.99946689 L78.5897837,3.74344933 C78.3033021,3.48906715 78.1877693,3.54556927 77.8173388,3.71662922 L77.244458,3.97101141 C77.1587774,3.99946689 77.0719423,3.88605381 77.2157603,3.74344933 L80.24732,1.21941548 C80.3612859,1.10641124 80.3612859,1.13486672 80.448121,1.19136884 L82.27941,2.86574493 C82.5089087,3.09208048 82.6227921,3.2335402 82.6227921,3.60207138 L82.6227921,16.0846241 C82.6227921,16.1976283 82.59294,16.3109596 82.7072358,16.3955084 L83.3669517,16.9623285 C83.5378181,17.1037882 83.8242998,17.2747664 84.0808468,17.1898906 L84.310263,17.1037882 C84.5967447,16.9903751 84.6524907,17.1602085 84.4816243,17.302813 L81.8503472,19.544091 L81.8503472,19.544091 Z M93.7794957,10.1552541 L88.717083,13.3038367 L88.717083,15.7145393 C88.717083,15.940466 88.7441314,16.0269772 88.9452623,16.111526 L90.5754203,16.9623285 C90.860665,17.1037882 91.3478652,17.2463927 91.6330274,17.0753327 L93.1496319,16.1976283 C93.4074159,16.0550238 93.60698,16.1399814 93.4643989,16.2545393 L89.3157752,19.5725465 C89.2317439,19.6570952 89.2600292,19.6290486 89.1449088,19.5725465 L85.4547877,17.6432976 C85.1683885,17.5023285 85.0815534,17.4442727 85.0815534,17.0484308 L85.0815534,8.0846273 C85.0815534,7.94202282 85.1396909,7.8855207 85.3109696,7.82901859 L91.3478652,5.89976969 C91.4334634,5.87180482 91.519144,5.84334934 91.5761269,5.95668065 L93.8364787,9.92769207 C93.8933792,10.0137944 93.8933792,10.098752 93.7794957,10.1552541 L93.7794957,10.1552541 Z M88.7711797,7.40357644 L88.717083,7.43047832 L88.717083,12.9360415 L90.7196507,11.2896303 C90.8319674,11.2051633 90.8319674,11.1470258 90.7749844,11.0637035 L88.7711797,7.40357644 L88.7711797,7.40357644 Z M104.191957,21.5013865 L101.044865,24.0254204 C100.959679,24.1099691 100.902696,24.083149 100.845713,24.053467 C99.1852905,22.9470558 97.8698994,22.4371466 96.4402125,22.4371466 C95.4382689,22.4371466 94.4364078,22.6346179 93.1496319,22.9755112 C93.0353361,23.0051933 93.0070508,22.9190091 93.0640338,22.8341333 C94.4081225,20.8203357 96.0681327,20.1970952 97.6133524,20.1970952 C99.9019894,20.1970952 102.045571,21.5862623 102.904851,22.1527554 L102.990532,22.0962532 C103.218381,21.5862623 103.305629,21.1027645 103.305629,20.6493575 C103.305629,19.2036064 102.104121,18.0406931 100.616214,17.302813 L97.5261049,19.5725465 C97.4122215,19.6570952 97.3265409,19.6290486 97.2412726,19.544091 L95.2956878,17.7847573 C95.0092062,17.5303751 94.9523057,17.4173709 94.9523057,17.1317531 L94.9523057,8.85047222 C94.9523057,8.70786775 95.0661892,8.67990288 95.1235844,8.6514474 L101.703426,5.95668065 C101.875942,5.87180482 101.988588,5.87180482 102.045571,5.92822517 L103.87851,7.74406099 C104.106359,7.97039653 104.220243,8.14145649 104.220243,8.33892772 L104.220243,15.8855992 C105.42175,16.7644484 105.937648,17.6432976 105.937648,18.5226373 C105.937648,19.5160443 105.450448,20.4798511 104.191957,21.5013865 L104.191957,21.5013865 Z M100.616214,8.93542982 C100.616214,8.82087198 100.587599,8.73632323 100.473633,8.62340076 L99.4147892,7.5746364 C99.3578062,7.51658068 99.3291086,7.54618092 99.2422735,7.5746364 L98.5550969,7.8855207 L98.5550969,16.0269772 C98.5550969,16.480466 98.6722789,16.5368863 99.1283076,16.9623285 C99.3860916,17.1898906 99.5271058,17.2747664 99.7864567,17.2747664 C100.015955,17.2747664 100.386798,17.1037882 100.616214,16.9623285 L100.616214,8.93542982 L100.616214,8.93542982 Z M113.516959,9.55875204 C113.374378,9.67330988 113.231715,9.729812 113.089546,9.729812 C112.945316,9.729812 112.801498,9.67330988 112.660483,9.55875204 L110.914463,8.0846273 L110.743514,8.22600525 L110.743514,16.111526 C110.743514,16.2825859 110.743514,16.3109596 110.85748,16.3955084 L111.315158,16.7929039 C111.801203,17.1898906 111.915169,17.2463927 112.431067,17.0484308 L112.774449,16.9058264 C113.002711,16.8209505 113.059611,16.933873 112.91703,17.0753327 L109.969502,19.544091 C109.857185,19.6570952 109.827333,19.6290486 109.741653,19.5725465 L107.481301,17.5588306 C107.224754,17.3312685 107.137919,17.2463927 107.137919,16.933873 L107.137919,8.85047222 L106.452309,8.14145649 C106.393759,8.0846273 106.366711,8.0846273 106.279793,8.14145649 L105.42175,8.62340076 C105.165203,8.76436986 105.078368,8.5664898 105.250884,8.42552069 L108.196763,5.95668065 C108.310729,5.87180482 108.369279,5.87180482 108.426261,5.92822517 L110.428417,7.8855207 L112.402369,5.95668065 C112.516665,5.87180482 112.601933,5.84334934 112.715817,5.95668065 L114.232421,7.34715609 C114.518903,7.60145651 114.689769,7.74406099 114.862285,7.74406099 C114.976169,7.74406099 115.120399,7.68764064 115.292915,7.5746364 L115.691631,7.31747408 C115.949827,7.14804949 116.06371,7.40357644 115.921129,7.54618092 L113.516959,9.55875204 L113.516959,9.55875204 Z M124.073322,19.544091 C123.959356,19.6570952 123.929503,19.6290486 123.843823,19.5725465 L121.240089,17.302813 L118.151546,19.5725465 C118.037663,19.6570952 118.009378,19.6290486 117.893845,19.544091 L115.921129,17.7847573 C115.606445,17.5303751 115.577747,17.4723194 115.577747,17.1317531 L115.577747,8.85047222 C115.577747,8.70786775 115.691631,8.67990288 115.749026,8.6514474 L122.387417,5.92822517 C122.500146,5.87180482 122.614112,5.87180482 122.727996,5.98472729 L124.502302,7.74406099 C124.760498,7.99844317 124.845766,8.14145649 124.845766,8.31096285 L124.845766,16.3109596 L125.360427,16.7644484 C125.990209,17.302813 126.077126,17.2747664 126.362288,17.1317531 L126.762654,16.933873 C127.019201,16.7929039 127.220414,16.9058264 126.990915,17.1037882 L124.073322,19.544091 L124.073322,19.544091 Z M121.240089,8.99193194 C121.240089,8.82087198 121.213041,8.73632323 121.070377,8.59494528 L120.040231,7.5746364 C119.983248,7.51658068 119.983248,7.54618092 119.896,7.5746364 L119.182188,7.8855207 L119.182188,16.0846241 C119.182188,16.3674617 119.239088,16.5089215 119.438652,16.6795726 L119.810732,17.0188306 C120.067279,17.2463927 120.383613,17.3593151 120.755693,17.1898906 L121.240089,16.9623285 L121.240089,8.99193194 L121.240089,8.99193194 Z M137.547277,17.4723194 L134.94478,19.459624 C134.657062,19.6855507 134.599749,19.6290486 134.256367,19.4311685 L131.539904,17.7847573 L131.539904,21.1027645 L132.311112,21.7573223 C132.397947,21.812189 132.397947,21.8703265 132.311112,21.9552024 L130.051997,24.0254204 C129.995014,24.053467 129.938031,24.1099691 129.822498,24.0254204 L127.305682,22.0117045 C127.220414,21.9552024 127.250266,21.8983732 127.305682,21.812189 L127.935876,21.1027645 L127.935876,8.90738319 L127.305682,8.14145649 C127.277397,8.11144741 127.250266,8.11144741 127.191716,8.14145649 L126.332436,8.5664898 C126.134027,8.67990288 125.990209,8.53844316 126.161158,8.39706521 L129.078751,5.95668065 C129.164432,5.87180482 129.279552,5.87180482 129.336535,5.92822517 L131.453069,7.99844317 L135.286926,5.95668065 C135.402458,5.89976969 135.487727,5.92822517 135.514775,5.95668065 L137.433311,7.71609612 C137.575563,7.85706522 137.748078,8.0846273 137.748078,8.33892772 L137.748078,17.0188306 C137.748078,17.2179372 137.748078,17.3312685 137.547277,17.4723194 L137.547277,17.4723194 Z M134.142401,9.07680777 C134.142401,8.90738319 134.085418,8.76436986 133.971534,8.6514474 L133.170392,7.8855207 C133.113409,7.82901859 133.056508,7.82901859 132.969591,7.85706522 L131.539904,8.39706521 L131.539904,17.3877706 L132.341047,17.6432976 C132.997876,17.8412594 133.284358,17.8132128 133.570757,17.5588306 L133.857156,17.302813 C134.115353,17.0753327 134.142401,16.8209505 134.142401,16.3674617 L134.142401,9.07680777 L134.142401,9.07680777 Z M148.851757,19.544091 C148.736224,19.6570952 148.736224,19.6290486 148.651039,19.5725465 L146.361989,17.5588306 C146.13414,17.3593151 146.020174,17.1898906 146.020174,16.8209505 L146.020174,9.04843406 C146.020174,8.9638853 146.020174,8.87778294 145.904641,8.79282535 L145.132196,8.11144741 C145.046598,8.05658066 144.932632,8.02812518 144.818749,8.0846273 L143.35789,8.76436986 L143.35789,16.0846241 C143.35789,16.1976283 143.329193,16.3109596 143.444725,16.3955084 L144.101638,16.9623285 C144.274153,17.1037882 144.559398,17.2747664 144.818749,17.1898906 L145.046598,17.1037882 C145.332997,16.9903751 145.388743,17.1602085 145.217465,17.302813 L142.586682,19.544091 C142.472716,19.6570952 142.442864,19.6290486 142.357184,19.5725465 L140.039931,17.5303751 C139.754687,17.302813 139.754687,17.2463927 139.754687,16.8774526 L139.754687,4.28344932 C139.754687,4.14207137 139.754687,4.11238936 139.610869,3.99946689 L139.32447,3.74344933 C139.037988,3.48906715 138.924104,3.54556927 138.553591,3.71662922 L137.980381,3.97101141 C137.895113,3.99946689 137.807865,3.88605381 137.952095,3.74344933 L140.983243,1.21941548 C141.098776,1.10641124 141.098776,1.13486672 141.184456,1.19136884 L143.015745,2.86574493 C143.245161,3.09208048 143.35789,3.2335402 143.35789,3.60207138 L143.35789,8.33892772 L147.163132,5.95668065 C147.278665,5.89976969 147.390981,5.89976969 147.477816,5.98472729 L149.337803,7.68764064 C149.59435,7.91397618 149.651333,8.0846273 149.651333,8.3673832 L149.651333,16.1399814 C149.651333,16.2825859 149.651333,16.3109596 149.793914,16.4239639 L150.511025,17.0188306 C150.795775,17.2747664 150.909741,17.2179372 151.281821,17.0484308 L151.854702,16.7929039 C151.941537,16.7644484 152.02598,16.8774526 151.883399,17.0188306 L148.851757,19.544091 L148.851757,19.544091 Z" id="path11283"/>
                        </g>
                    </g>
                </g>
            </g>
        </g>
    </g>
</svg>