<?xml version="1.0" encoding="UTF-8" standalone="no"?>
<svg class="featured-in-bbcnews" version="1.1" xmlns="http://www.w3.org/2000/svg" xmlns:xlink="http://www.w3.org/1999/xlink" x="0px" y="0px"
   viewBox="0 0 841.9 644" style="enable-background:new 0 0 841.9 644;" xml:space="preserve">
<style type="text/css">
  .featured-in-bbcnews .st0{fill:#B4B4B4;}
</style>
<g>
  <path class="st0" d="M0,0v644h841.9V0H0z M498.8,138.2h118.8v120.9H498.8V138.2z M361.4,138.2h118.8v120.9H361.4V138.2z
     M224.2,138.2h118.8v120.9H224.2V138.2z M263.3,475.7H244L138.4,354v121.7H117V317.7h18.4l106.6,122.7V317.7h21.4L263.3,475.7
    L263.3,475.7z M388.8,475.3h-91.6V317.6h89.6v20.1h-67v48.3h64.6v20.2h-64.6v49.1h69L388.8,475.3L388.8,475.3z M572.9,476.4h-5.1
    l-51.7-128.5l-52,128.5h-4.9l-63.6-158.6h22.8l43.5,108.8l43.9-108.8H527l44,108.8l43-108.8h22.6L572.9,476.4z M722.7,465.5
    c-8.5,8-19.6,11.9-33.2,11.9c-15.6,0-29.8-4.8-42.7-14.5v-28.7c12.2,15.5,26.4,23.3,42.3,23.3c7.1,0,12.9-2,17.7-6
    c4.8-3.9,7.1-8.8,7.1-14.8c0-9.7-7-18.7-20.7-27.4L676.1,399c-10.7-6.6-18.5-13.1-23-19.4c-4.6-6.3-6.8-13.8-6.8-21.9
    c0-12.4,4.3-22.6,12.9-30.3c8.7-7.8,19.9-11.7,33.7-11.7c13.3,0,25.3,3.7,36.2,11.1v25.7c-11.4-10.9-23.6-16.5-36.7-16.5
    c-7.3,0-13.4,1.7-18.2,5.1c-4.8,3.4-7.1,7.8-7.1,13.1c0,4.8,1.7,9.2,5.3,13.3c3.6,4.1,9.2,8.5,16.8,13.1l17.3,10.2
    c19.2,11.6,28.9,26.2,28.9,43.9C735.5,447.3,731.2,457.7,722.7,465.5z"/>
  <g>
    <path class="st0" d="M308.6,203.7c-3.7-3.9-8.7-6.6-14.8-7.8c8.7-3.7,12.9-9.7,12.9-18.2c0-4.4-1-8.3-3.1-11.7c-2-3.4-5.1-6-9-8
      c-3.9-1.9-9.4-2.9-16.3-2.9H256v86.4h28.7c6.5,0,11.9-1,16.2-3.2c4.3-2.2,7.7-4.9,9.9-8.5c2.2-3.4,3.4-7.3,3.4-11.7
      C314.2,212.5,312.3,207.8,308.6,203.7z M268.3,166.3h10.4c10.4,0,15.5,4.1,15.5,12.4c0,3.9-1.4,7.3-4.1,9.7
      c-2.7,2.6-7.3,3.7-13.8,3.7h-8.2v-25.8H268.3z M299.4,224.1c-1.5,2.2-3.4,3.9-5.8,4.9c-2.4,1-6.8,1.5-13.4,1.5h-11.9v-27.4h11.4
      c6,0,10.4,0.5,13.3,1.5c2.7,1,4.9,2.7,6.5,4.9c1.5,2.2,2.2,4.6,2.2,7.1C301.6,219.5,300.7,221.9,299.4,224.1z"/>
  </g>
  <g>
    <path class="st0" d="M446.4,203.7c-3.7-3.9-8.7-6.6-14.8-7.8c8.7-3.7,12.9-9.7,12.9-18.2c0-4.4-1-8.3-3.1-11.7c-2-3.4-5.1-6-9-8
      c-3.9-1.9-9.4-2.9-16.3-2.9h-22.3v86.4h28.7c6.5,0,11.9-1,16.2-3.2c4.3-2.2,7.5-4.9,9.9-8.5c2.2-3.4,3.4-7.3,3.4-11.7
      C451.9,212.5,450,207.8,446.4,203.7z M406,166.3h10.4c10.4,0,15.5,4.1,15.5,12.4c0,3.9-1.4,7.3-4.1,9.7c-2.7,2.6-7.3,3.7-13.8,3.7
      h-8.2v-25.8H406z M437.1,224.1c-1.5,2.2-3.4,3.9-5.8,4.9c-2.4,1-6.8,1.5-13.4,1.5H406v-27.4h11.4c6,0,10.4,0.5,13.3,1.5
      c2.7,1,4.9,2.7,6.5,4.9c1.5,2.2,2.2,4.6,2.2,7.1C439.3,219.5,438.6,221.9,437.1,224.1z"/>
  </g>
  <path class="st0" d="M539.4,222c-6.3-6.1-9.5-13.9-9.5-23.3c0-9.4,3.2-17.2,9.7-23.5c6.5-6.3,14.5-9.4,24.1-9.4
    c9.5,0,19.2,2.9,29.1,8.7v-13.3c-10.9-4.8-20.7-7.1-29.8-7.1c-12.9,0-23.8,4.3-32.6,12.9c-8.8,8.5-13.3,19.2-13.3,31.6
    c0,8,1.9,15.3,5.8,22.1c3.9,6.8,9,12.1,15.6,16c6.6,3.9,14.6,5.8,24.1,5.8c11.7,0,21.9-2.6,30.9-7.5v-13.6
    c-9.9,6.5-19.9,9.7-30.1,9.7C553.7,231.2,545.7,228.2,539.4,222z"/>
</g>
</svg>
